<?xml version="1.0" standalone="no"?>
<!DOCTYPE svg PUBLIC "-//W3C//DTD SVG 20010904//EN"
 "http://www.w3.org/TR/2001/REC-SVG-20010904/DTD/svg10.dtd">
<svg version="1.0" xmlns="http://www.w3.org/2000/svg"
 width="40pt" height="40pt" viewBox="0 0 978.837445 979.079666"
 preserveAspectRatio="xMidYMid meet">
<metadata>
Created by potrace 1.12, written by Peter Selinger 2001-2015
</metadata>
<g transform="translate(-1.543282,979.530341) scale(0.100000,-0.100000)"
fill="#FFFFFF" stroke="none">
<path d="M1530 9791 c-125 -19 -199 -54 -400 -195 -393 -274 -677 -595 -865
-978 -87 -177 -132 -299 -178 -484 -59 -234 -71 -346 -72 -629 0 -360 20 -474
144 -833 563 -1628 1623 -3127 3165 -4476 783 -685 1748 -1356 2613 -1814 192
-102 333 -159 575 -232 825 -248 1594 -179 2244 201 201 118 358 241 550 433
245 246 409 473 470 651 24 69 28 96 28 195 0 170 -45 313 -147 467 -46 68
-64 86 -152 145 -282 187 -1644 1090 -1730 1146 -55 36 -118 79 -140 97 -63
50 -154 100 -235 130 -108 40 -264 46 -375 16 -154 -43 -166 -52 -534 -434
-358 -371 -410 -415 -559 -476 -197 -81 -360 -77 -560 13 -935 421 -1690 1056
-2225 1871 -214 327 -380 670 -418 863 -18 98 -7 278 26 387 89 300 347 641
684 903 125 97 179 155 213 228 56 119 48 293 -20 436 -15 31 -337 525 -717
1099 -628 948 -695 1046 -750 1091 -76 62 -218 132 -316 157 -89 23 -240 33
-319 22z"/>
</g>
</svg>
