<?xml version="1.0" standalone="no"?>
<!DOCTYPE svg PUBLIC "-//W3C//DTD SVG 20010904//EN"
 "http://www.w3.org/TR/2001/REC-SVG-20010904/DTD/svg10.dtd">
<svg version="1.0" xmlns="http://www.w3.org/2000/svg"
 width="40pt" height="40pt" viewBox="0 0 1276.963736 1287.809356"
 preserveAspectRatio="xMidYMid meet">
<metadata>
Created by potrace 1.12, written by Peter Selinger 2001-2015
</metadata>
<g transform="translate(-286.536264,1573.794196) scale(0.100000,-0.100000)"
fill="#FFFFFF" stroke="none">
<path d="M4462 15729 c-681 -56 -1288 -536 -1506 -1190 -306 -919 190 -1917
1105 -2223 209 -69 285 -80 554 -80 212 0 252 2 345 22 447 97 823 341 1083
703 80 111 194 337 237 466 145 439 110 925 -95 1334 -90 180 -182 307 -330
454 -157 157 -273 242 -460 335 -220 109 -396 158 -640 179 -133 12 -145 12
-293 0z"/>
<path d="M12250 11609 c-1057 -44 -1778 -401 -2277 -1126 l-53 -77 0 340 c0
186 -5 368 -10 403 -6 35 -24 89 -40 120 -37 75 -131 162 -207 193 l-58 23
-1045 0 -1045 0 -58 -23 c-82 -33 -176 -123 -213 -204 l-29 -63 0 -4020 0
-4020 28 -61 c54 -116 169 -203 297 -223 89 -15 1951 -15 2040 0 145 23 263
121 316 265 18 47 19 141 25 2264 l5 2215 22 115 c89 466 216 782 419 1045
199 257 458 417 781 482 126 26 459 25 597 -1 275 -51 479 -159 660 -348 225
-234 356 -554 428 -1048 21 -144 21 -168 27 -2420 l5 -2275 32 -67 c59 -124
170 -208 304 -229 40 -6 445 -9 1089 -7 933 3 1029 5 1074 20 113 39 214 140
253 251 17 49 18 162 18 2327 0 2338 -2 2466 -41 2900 -50 571 -146 1036 -295
1440 -105 285 -291 622 -463 840 -75 95 -289 309 -382 383 -380 299 -852 486
-1411 557 -137 18 -509 42 -588 38 -16 -1 -109 -4 -205 -9z"/>
<path d="M3616 11479 c-72 -12 -170 -64 -226 -119 -56 -57 -105 -151 -120
-229 -14 -75 -14 -7838 0 -7912 34 -180 179 -320 360 -349 89 -14 1893 -13
1979 1 140 22 255 108 318 237 l38 76 0 3991 0 3991 -38 76 c-62 127 -174 212
-311 237 -71 13 -1923 13 -2000 0z"/>
</g>
</svg>
